<svg xmlns="http://www.w3.org/2000/svg" viewBox="0 0 1200 900" role="img" aria-labelledby="t d"><title id="t">Abstract workflow map</title><desc id="d">Original workflow map connecting decisions, states and outcomes.</desc><rect width="1200" height="900" rx="64" fill="#101319"/><g stroke="#6ff0cf" stroke-width="3" fill="none" opacity=".52"><path d="M130 520C290 260 430 690 590 410S900 220 1070 370"/><path d="M125 260C300 430 460 180 650 325s260 290 420 175"/></g><g fill="#171d25" stroke="#ffffff" stroke-opacity=".18" stroke-width="2"><rect x="70" y="178" width="230" height="150" rx="26"/><rect x="345" y="480" width="240" height="160" rx="26"/><rect x="650" y="235" width="220" height="150" rx="26"/><rect x="920" y="430" width="210" height="150" rx="26"/></g><g fill="#f4f1e8"><circle cx="115" cy="220" r="10"/><circle cx="390" cy="525" r="10"/><circle cx="695" cy="280" r="10"/><circle cx="965" cy="475" r="10"/></g><g fill="#ffffff" opacity=".75"><rect x="115" y="252" width="120" height="13" rx="7"/><rect x="115" y="278" width="82" height="8" rx="4" opacity=".35"/><rect x="390" y="558" width="130" height="13" rx="7"/><rect x="390" y="586" width="98" height="8" rx="4" opacity=".35"/><rect x="695" y="312" width="110" height="13" rx="7"/><rect x="695" y="339" width="75" height="8" rx="4" opacity=".35"/><rect x="965" y="508" width="100" height="13" rx="7"/><rect x="965" y="535" width="74" height="8" rx="4" opacity=".35"/></g><g fill="#8b7cff"><circle cx="296" cy="413" r="14"/><circle cx="603" cy="378" r="14"/><circle cx="882" cy="389" r="14"/></g><g fill="#ffb06a"><circle cx="475" cy="330" r="10"/><circle cx="764" cy="455" r="10"/></g></svg>